HIERARCHY
ROOT Hips
{
	OFFSET 0.000000 89.005402 0.000000
	CHANNELS 6 Xposition Yposition Zposition Xrotation Yrotation Zrotation
	JOINT Spine
	{
		OFFSET 0.116900 10.681000 0.373400
		CHANNELS 3 Xrotation Yrotation Zrotation
		JOINT Spine1
		{
			OFFSET 0.000000 13.840401 0.053500
			CHANNELS 3 Xrotation Yrotation Zrotation
			JOINT Spine2
			{
				OFFSET 0.000000 14.712700 -0.366200
				CHANNELS 3 Xrotation Yrotation Zrotation
				JOINT Neck
				{
					OFFSET 0.000000 35.415497 -3.314200
					CHANNELS 3 Xrotation Yrotation Zrotation
					JOINT Head
					{
						OFFSET 0.000000 16.899200 1.218300
						CHANNELS 3 Xrotation Yrotation Zrotation
						JOINT HeadTop_End
						{
							OFFSET 0.000000 22.206207 2.192500
							CHANNELS 3 Xrotation Yrotation Zrotation
							End Site
							{
								OFFSET 0.000000 22.314178 0.000000
							}
						}
					}
				}
				JOINT LeftShoulder
				{
					OFFSET 12.896400 26.716293 -4.548400
					CHANNELS 3 Xrotation Yrotation Zrotation
					JOINT LeftArm
					{
						OFFSET 19.027000 -4.857010 -1.718400
						CHANNELS 3 Xrotation Yrotation Zrotation
						JOINT LeftForeArm
						{
							OFFSET 24.179897 0.000000 0.000000
							CHANNELS 3 Xrotation Yrotation Zrotation
							JOINT LeftHand
							{
								OFFSET 27.156403 0.000000 0.000000
								CHANNELS 3 Xrotation Yrotation Zrotation
								JOINT LeftHandIndex1
								{
									OFFSET 16.441200 0.000000 0.000000
									CHANNELS 3 Xrotation Yrotation Zrotation
									JOINT LeftHandIndex2
									{
										OFFSET 4.821899 0.000000 0.000000
										CHANNELS 3 Xrotation Yrotation Zrotation
										JOINT LeftHandIndex3
										{
											OFFSET 6.386497 0.000000 0.000000
											CHANNELS 3 Xrotation Yrotation Zrotation
											JOINT LeftHandIndex4
											{
												OFFSET 5.188988 0.000000 0.000000
												CHANNELS 3 Xrotation Yrotation Zrotation
												End Site
												{
													OFFSET -0.178703 5.185913 0.000177
												}
											}
										}
									}
								}
								JOINT LeftHandThumb1
								{
									OFFSET 6.534897 -5.032593 5.900300
									CHANNELS 3 Xrotation Yrotation Zrotation
									JOINT LeftHandThumb2
									{
										OFFSET 3.818176 -2.204422 2.204423
										CHANNELS 3 Xrotation Yrotation Zrotation
										JOINT LeftHandThumb3
										{
											OFFSET 3.252098 -1.877594 1.877601
											CHANNELS 3 Xrotation Yrotation Zrotation
											JOINT LeftHandThumb4
											{
												OFFSET 5.251778 -3.032120 3.032117
												CHANNELS 3 Xrotation Yrotation Zrotation
												End Site
												{
													OFFSET 0.000023 6.780014 0.000000
												}
											}
										}
									}
								}
							}
						}
					}
				}
				JOINT RightShoulder
				{
					OFFSET -12.896300 26.716293 -4.548400
					CHANNELS 3 Xrotation Yrotation Zrotation
					JOINT RightArm
					{
						OFFSET -19.027000 -4.857010 -1.718400
						CHANNELS 3 Xrotation Yrotation Zrotation
						JOINT RightForeArm
						{
							OFFSET -24.179897 0.000000 0.000000
							CHANNELS 3 Xrotation Yrotation Zrotation
							JOINT RightHand
							{
								OFFSET -27.156403 0.000000 0.000000
								CHANNELS 3 Xrotation Yrotation Zrotation
								JOINT RightHandThumb1
								{
									OFFSET -6.591202 -4.852203 5.988100
									CHANNELS 3 Xrotation Yrotation Zrotation
									JOINT RightHandThumb2
									{
										OFFSET -3.818176 -2.204422 2.204423
										CHANNELS 3 Xrotation Yrotation Zrotation
										JOINT RightHandThumb3
										{
											OFFSET -3.252098 -1.877594 1.877601
											CHANNELS 3 Xrotation Yrotation Zrotation
											JOINT RightHandThumb4
											{
												OFFSET -5.251778 -3.032120 3.032117
												CHANNELS 3 Xrotation Yrotation Zrotation
												End Site
												{
													OFFSET -0.000023 6.780014 0.000000
												}
											}
										}
									}
								}
								JOINT RightHandIndex1
								{
									OFFSET -16.029404 0.000000 0.000000
									CHANNELS 3 Xrotation Yrotation Zrotation
									JOINT RightHandIndex2
									{
										OFFSET -5.213303 0.000000 0.000000
										CHANNELS 3 Xrotation Yrotation Zrotation
										JOINT RightHandIndex3
										{
											OFFSET -6.386528 0.000000 0.000000
											CHANNELS 3 Xrotation Yrotation Zrotation
											JOINT RightHandIndex4
											{
												OFFSET -5.189026 0.000000 0.000000
												CHANNELS 3 Xrotation Yrotation Zrotation
												End Site
												{
													OFFSET 0.236702 5.183624 0.001972
												}
											}
										}
									}
								}
							}
						}
					}
				}
			}
		}
	}
	JOINT LeftUpLeg
	{
		OFFSET 14.073000 -7.904099 -1.463000
		CHANNELS 3 Xrotation Yrotation Zrotation
		JOINT LeftLeg
		{
			OFFSET -0.109806 -34.073280 4.093200
			CHANNELS 3 Xrotation Yrotation Zrotation
			JOINT LeftFoot
			{
				OFFSET 0.109806 -29.899420 -6.319000
				CHANNELS 3 Xrotation Yrotation Zrotation
				JOINT LeftToeBase
				{
					OFFSET 1.551100 -14.988700 20.535801
					CHANNELS 3 Xrotation Yrotation Zrotation
					JOINT LeftToe_End
					{
						OFFSET 0.221200 0.570800 13.248301
						CHANNELS 3 Xrotation Yrotation Zrotation
						End Site
						{
							OFFSET 0.000000 13.262435 0.000000
						}
					}
				}
			}
		}
	}
	JOINT RightUpLeg
	{
		OFFSET -13.839300 -7.904099 -1.463000
		CHANNELS 3 Xrotation Yrotation Zrotation
		JOINT RightLeg
		{
			OFFSET 0.109694 -34.073219 4.093300
			CHANNELS 3 Xrotation Yrotation Zrotation
			JOINT RightFoot
			{
				OFFSET -0.109694 -29.899384 -6.319200
				CHANNELS 3 Xrotation Yrotation Zrotation
				JOINT RightToeBase
				{
					OFFSET -1.551100 -14.988700 20.535801
					CHANNELS 3 Xrotation Yrotation Zrotation
					JOINT RightToe_End
					{
						OFFSET -0.221200 0.570900 13.248299
						CHANNELS 3 Xrotation Yrotation Zrotation
						End Site
						{
							OFFSET 0.000000 13.262440 0.000000
						}
					}
				}
			}
		}
	}
}
MOTION
Frames: 9
Frame Time: 0.033333
-0.384554 71.819824 -0.075038 -5.398680 -46.211984 -0.238044 9.452221 7.171234 -1.616275 2.187715 0.989899 -0.915631 2.202829 0.982775 -0.894153 0.084653 13.220555 4.538680 8.920926 20.138149 -4.130232 0.000001 0.000000 -0.000000 1.117177 3.546342 -8.633309 -53.487017 4.935510 -51.502994 0.000216 -106.358067 0.000203 1.988598 -7.706145 -15.869251 0.255310 3.378218 -45.814331 5.654088 5.847763 -88.067455 2.162142 4.544816 -50.866372 -0.000002 0.000001 0.000001 -6.141225 -11.690807 -6.761702 9.914103 42.595512 3.409862 -0.422813 8.108107 27.509125 -0.000000 -0.000003 0.000001 3.036127 13.027196 -5.371407 -48.713722 27.172827 83.457084 0.000054 105.988294 -0.000065 -8.345368 17.548105 8.775686 -7.341095 13.749659 7.412325 9.855747 -44.489100 -3.903277 -0.115780 -14.513080 -28.973857 -0.000000 -0.000002 -0.000001 -0.124374 -2.384783 45.108857 4.500585 -4.654546 88.071164 1.723226 -3.618382 50.920112 0.000000 -0.000002 0.000002 -31.861446 6.395804 19.963974 59.337617 -8.188286 3.970976 -25.244770 -6.905767 -16.448600 -1.594042 0.000007 0.000002 -0.000000 -0.000000 -0.000000 -18.986227 -11.114459 -32.040817 59.475061 -5.224349 -6.737428 -30.568850 -9.909653 26.194288 -0.012997 -0.000004 -0.000009 0.000000 0.000001 -0.000000 
-0.442456 72.027527 -0.099433 -5.470844 -45.969994 0.088987 8.016677 6.700386 -1.832157 3.160283 0.724573 -1.324799 3.176838 0.720762 -1.301017 0.371963 11.991812 4.703338 9.123663 21.101620 -3.943542 -0.000000 -0.000000 0.000001 0.512006 2.902681 -6.160974 -47.509703 4.047349 -55.997139 -0.000055 -106.445124 -0.000050 2.980276 -2.400914 -12.371143 0.255307 3.378219 -45.814327 5.654091 5.847763 -88.067448 2.162144 4.544817 -50.866372 0.000000 -0.000002 -0.000002 -6.141225 -11.690810 -6.761702 9.914102 42.595515 3.409871 -0.422815 8.108104 27.509123 0.000002 0.000003 -0.000003 3.829645 13.293788 -3.637923 -49.356955 29.216776 80.258664 0.000098 106.693483 -0.000122 -9.646001 14.492823 6.010545 -7.341093 13.749658 7.412326 9.855747 -44.489103 -3.903273 -0.115780 -14.513081 -28.973854 0.000002 -0.000001 -0.000002 -0.124373 -2.384785 45.108857 4.500584 -4.654549 88.071164 1.723225 -3.618382 50.920112 0.000000 0.000001 0.000001 -31.168732 5.870316 19.356922 58.356282 -6.588897 3.705655 -24.908139 -7.843753 -17.278135 -1.594028 -0.000007 0.000007 0.000000 0.000002 0.000000 -18.977339 -11.577612 -32.629822 59.210746 -4.271731 -6.520686 -30.588391 -10.295817 25.500551 -0.013000 0.000016 0.000000 0.000000 0.000000 0.000000 
-0.537914 72.282661 -0.169882 -5.582855 -45.896037 0.429152 6.526164 7.339254 -2.197750 4.068728 0.324292 -1.774850 4.092809 0.265578 -1.741217 0.070569 10.483384 4.904384 9.846977 20.897203 -3.285012 -0.000001 0.000000 0.000000 -0.169138 2.275405 -3.231873 -38.816426 -1.097679 -61.215987 0.000057 -104.280371 0.000044 3.469934 1.425915 -3.456718 0.255310 3.378217 -45.814327 5.654089 5.847760 -88.067448 2.162144 4.544818 -50.866376 -0.000002 0.000001 -0.000000 -6.141226 -11.690809 -6.761699 9.914102 42.595515 3.409875 -0.422812 8.108101 27.509126 -0.000002 -0.000001 -0.000001 4.560703 13.745591 -1.432275 -50.030241 31.951884 74.874549 0.000050 107.667824 -0.000051 -11.482242 11.431449 3.307299 -7.341094 13.749657 7.412325 9.855752 -44.489096 -3.903277 -0.115780 -14.513078 -28.973857 0.000001 0.000001 0.000001 -0.124374 -2.384786 45.108857 4.500583 -4.654546 88.071164 1.723223 -3.618379 50.920112 0.000000 -0.000000 -0.000001 -30.009119 4.604007 18.827582 57.065507 -3.642714 2.898220 -24.607520 -9.433991 -18.753391 -1.594038 -0.000010 0.000003 -0.000000 0.000002 -0.000000 -19.041941 -11.948634 -33.264391 59.072667 -2.070958 -5.946822 -30.770952 -11.454988 23.826867 -0.013003 0.000008 0.000007 -0.000000 -0.000001 0.000000 
-0.473606 72.712425 -0.228747 -5.790396 -45.424515 0.661217 6.264917 9.412898 -1.529349 4.991461 0.155223 -2.033144 5.020606 0.001852 -1.978189 -1.356384 8.631021 4.657539 7.094059 19.611027 -3.045559 0.000000 0.000001 0.000000 -0.728020 2.617092 -1.630430 -26.177248 -7.482185 -64.456837 0.000236 -102.580439 0.000238 -0.263434 3.197581 10.118907 0.255310 3.378215 -45.814327 5.654085 5.847762 -88.067448 2.162143 4.544813 -50.866379 0.000000 -0.000000 0.000002 -6.141227 -11.690805 -6.761696 9.914108 42.595515 3.409874 -0.422816 8.108101 27.509126 0.000001 -0.000001 0.000001 5.310381 13.542896 -0.124217 -51.541390 35.038191 67.431029 0.000127 109.613287 -0.000141 -13.734021 9.095563 0.056509 -7.341093 13.749658 7.412325 9.855751 -44.489107 -3.903273 -0.115780 -14.513080 -28.973861 0.000001 -0.000002 0.000003 -0.124373 -2.384782 45.108861 4.500585 -4.654549 88.071164 1.723224 -3.618379 50.920109 0.000001 0.000000 0.000001 -28.638227 2.415709 17.913090 55.496093 0.081325 1.826156 -23.985854 -11.245305 -20.330925 -1.594026 0.000000 -0.000006 -0.000000 -0.000002 -0.000000 -18.616203 -12.324702 -34.427374 58.274600 -1.056158 -4.406342 -30.490115 -11.312994 22.678197 -0.013000 -0.000022 -0.000008 0.000000 -0.000000 0.000000 
0.947410 73.424080 0.103798 -3.838862 -43.817443 4.199498 9.457766 12.671694 -0.673612 8.180617 3.405813 -1.103713 7.948977 3.547254 -1.285781 -6.003418 6.569612 1.568647 -12.922137 17.106788 -6.496978 0.000000 -0.000000 -0.000000 -1.047249 2.137749 0.076406 -12.877331 -5.716021 -63.145276 -0.000001 -102.045000 0.000022 -5.718958 -7.998637 17.083929 0.255311 3.378215 -45.814331 5.654086 5.847763 -88.067455 2.162143 4.544818 -50.866376 -0.000004 0.000003 0.000001 -6.141222 -11.690808 -6.761702 9.914101 42.595512 3.409873 -0.422813 8.108102 27.509126 -0.000002 0.000000 -0.000002 5.914618 11.328247 -1.415653 -55.773204 31.450829 54.307244 0.000033 115.460373 -0.000036 -16.242811 8.305291 -4.200828 -7.341094 13.749657 7.412328 9.855750 -44.489100 -3.903272 -0.115778 -14.513078 -28.973857 -0.000003 -0.000004 0.000002 -0.124374 -2.384783 45.108857 4.500582 -4.654547 88.071164 1.723222 -3.618380 50.920112 0.000001 0.000001 -0.000001 -28.746063 -3.404334 10.988642 53.057866 4.265004 1.113792 -21.401117 -8.400336 -20.546715 -1.594033 -0.000012 -0.000006 -0.000000 0.000002 -0.000000 -21.332411 -12.825919 -39.719934 56.648254 1.272274 -2.172884 -28.379463 -10.741945 21.736602 -0.012999 0.000018 0.000004 0.000000 0.000001 0.000000 
3.429180 74.051781 0.821231 2.063424 -39.324121 14.365969 12.497349 12.342699 -2.127177 13.345532 6.560719 -0.059857 12.705432 7.303524 0.020444 -10.868124 5.819775 -4.486174 -33.297094 20.429504 -12.959413 -0.000001 0.000001 -0.000000 -0.688099 4.262670 -0.795346 -9.100576 -4.668305 -63.154832 -0.001372 -91.425299 -0.001170 -16.804962 -18.321067 7.941218 0.255310 3.378218 -45.814331 5.654089 5.847761 -88.067455 2.162142 4.544815 -50.866376 0.000002 0.000001 -0.000001 -6.141227 -11.690810 -6.761698 9.914103 42.595512 3.409876 -0.422812 8.108105 27.509126 0.000003 0.000002 0.000001 7.978458 17.640951 -5.489754 -61.867785 16.692921 37.776639 0.000004 114.815589 -0.000006 -18.541848 10.879971 -11.013753 -7.341093 13.749657 7.412326 9.855748 -44.489100 -3.903274 -0.115781 -14.513085 -28.973854 -0.000002 0.000001 -0.000002 -0.124373 -2.384785 45.108861 4.500582 -4.654546 88.071164 1.723222 -3.618379 50.920105 -0.000000 -0.000003 -0.000001 -34.391935 -5.807078 -2.637097 47.287462 2.854407 2.873101 -15.086775 -1.351347 -17.417657 -1.594028 -0.000000 -0.000003 -0.000000 -0.000000 0.000000 -28.172049 -10.958121 -49.416777 55.230785 1.398869 -2.043554 -24.519344 -11.102331 24.533864 -0.013001 -0.000016 -0.000004 -0.000000 0.000001 0.000000 
5.660183 74.429314 1.323215 7.430933 -33.944094 24.294320 12.857601 9.824950 -2.062148 14.656454 8.571858 2.120961 13.485613 9.999376 2.244479 -10.419415 4.846860 -9.561182 -42.706386 21.814243 -17.691894 0.000001 -0.000001 -0.000000 0.018866 8.063999 -3.521171 -9.210237 -5.020994 -65.266405 0.000019 -80.308435 0.000035 -27.605635 -17.726665 -9.389752 0.255309 3.378218 -45.814327 5.654087 5.847762 -88.067448 2.162142 4.544815 -50.866376 -0.000002 -0.000001 0.000000 -6.141226 -11.690808 -6.761700 9.914106 42.595512 3.409872 -0.422814 8.108099 27.509121 0.000001 -0.000003 -0.000002 9.272851 22.798026 -5.013170 -60.742805 11.435012 29.376193 0.000087 109.341172 -0.000099 -20.220509 13.844205 -16.297151 -7.341093 13.749662 7.412326 9.855748 -44.489096 -3.903276 -0.115781 -14.513085 -28.973854 -0.000003 0.000000 -0.000001 -0.124373 -2.384781 45.108861 4.500583 -4.654549 88.071164 1.723223 -3.618379 50.920109 -0.000000 -0.000001 0.000000 -40.103083 -5.799506 -13.276255 39.238358 3.586585 3.292349 -8.112751 -0.030513 -15.522088 -1.682458 -0.000005 0.000001 -0.000000 -0.000000 0.000000 -35.071659 -7.762706 -58.694452 53.886176 3.572957 -2.274729 -20.623398 -13.914913 26.764687 -0.535232 -0.000005 -0.000005 -0.000000 -0.000000 -0.000000 
7.370255 74.557594 1.478050 11.105802 -30.414265 30.554124 12.631225 8.577539 0.446603 14.526001 9.920113 3.132155 13.202742 11.578813 2.926363 -6.044000 2.955879 -12.220355 -45.046300 20.078466 -20.560821 -0.000000 -0.000000 0.000000 -0.190572 9.663947 -2.773004 -7.279032 -5.282060 -68.747473 0.000014 -74.937803 0.000029 -31.305790 -11.161102 -13.150938 0.255307 3.378216 -45.814331 5.654092 5.847768 -88.067455 2.162138 4.544819 -50.866372 -0.000003 -0.000002 0.000001 -6.141228 -11.690807 -6.761700 9.914099 42.595515 3.409873 -0.422815 8.108103 27.509123 -0.000001 0.000001 0.000001 9.944088 24.816384 -2.627735 -53.947501 6.748887 26.177214 0.000085 109.740588 -0.000104 -22.266856 13.756045 -16.292161 -7.341095 13.749657 7.412324 9.855749 -44.489103 -3.903277 -0.115781 -14.513080 -28.973857 0.000002 0.000001 -0.000001 -0.124375 -2.384786 45.108864 4.500585 -4.654543 88.071171 1.723225 -3.618379 50.920112 0.000000 0.000001 0.000001 -44.080538 -6.031779 -19.341376 32.618528 4.355841 3.697901 -3.144064 0.387832 -14.876111 -2.252566 0.000027 0.000001 -0.000000 -0.000001 -0.000000 -40.855354 -4.876281 -64.725687 52.565539 4.825684 -2.372944 -17.284842 -14.486695 28.609752 -1.617397 -0.000014 0.000001 0.000000 -0.000000 0.000001 
8.744507 74.107422 1.479698 14.090975 -29.493795 33.632681 12.322630 9.878433 5.148957 15.561015 9.293745 4.531916 14.005149 11.295481 4.412106 -1.751279 0.735075 -12.585766 -44.863466 16.157895 -19.606475 0.000004 0.000000 0.000001 -1.118229 8.911288 0.199327 -3.754387 -7.907052 -73.838798 0.000010 -74.442143 0.000015 -25.500399 -11.143237 -9.650126 0.255307 3.378214 -45.814331 5.654088 5.847762 -88.067455 2.162139 4.544815 -50.866372 0.000000 -0.000000 -0.000002 -6.141227 -11.690806 -6.761698 9.914100 42.595515 3.409872 -0.422813 8.108104 27.509125 -0.000000 -0.000001 0.000000 10.436234 26.699307 0.483869 -48.056145 3.932266 27.143109 0.000085 111.217452 -0.000089 -24.402412 12.035447 -13.637322 -7.341098 13.749660 7.412324 9.855754 -44.489100 -3.903272 -0.115777 -14.513080 -28.973854 0.000001 0.000000 0.000001 -0.124379 -2.384782 45.108861 4.500583 -4.654543 88.071171 1.723224 -3.618384 50.920112 0.000000 -0.000002 0.000001 -48.580417 -7.333192 -22.273588 31.682294 4.109027 4.515132 -1.842282 3.425245 -15.822644 -3.041166 0.000016 -0.000000 -0.000000 -0.000002 -0.000000 -45.332065 -1.821445 -67.562216 52.785556 6.307278 -0.943278 -16.075566 -14.035900 28.474430 -2.531072 -0.000007 0.000005 -0.000000 -0.000000 -0.000000 
